<svg width="43" height="43" viewBox="0 0 43 43" fill="none" xmlns="http://www.w3.org/2000/svg">
<path d="M21.5 34.4C17.0208 34.4 13.0612 32.1067 10.75 28.6667C10.8037 25.0833 17.9166 23.1125 21.5 23.1125C25.0833 23.1125 32.1962 25.0833 32.25 28.6667C29.9387 32.1067 25.9791 34.4 21.5 34.4ZM21.5 8.95834C22.9255 8.95834 24.2927 9.52464 25.3007 10.5326C26.3087 11.5407 26.875 12.9078 26.875 14.3333C26.875 15.7589 26.3087 17.126 25.3007 18.134C24.2927 19.1421 22.9255 19.7083 21.5 19.7083C20.0744 19.7083 18.7073 19.1421 17.6993 18.134C16.6913 17.126 16.125 15.7589 16.125 14.3333C16.125 12.9078 16.6913 11.5407 17.6993 10.5326C18.7073 9.52464 20.0744 8.95834 21.5 8.95834V8.95834ZM21.5 3.58334C19.1471 3.58334 16.8173 4.04677 14.6436 4.94717C12.4698 5.84757 10.4947 7.1673 8.83098 8.83101C5.47096 12.191 3.58331 16.7482 3.58331 21.5C3.58331 26.2518 5.47096 30.809 8.83098 34.169C10.4947 35.8327 12.4698 37.1525 14.6436 38.0529C16.8173 38.9533 19.1471 39.4167 21.5 39.4167C26.2518 39.4167 30.809 37.529 34.169 34.169C37.529 30.809 39.4166 26.2518 39.4166 21.5C39.4166 11.5921 31.3541 3.58334 21.5 3.58334Z" fill="#00A8E1"/>
</svg>
